<?xml version="1.0" encoding="iso-8859-1"?>
<!-- Generator: Adobe Illustrator 19.0.0, SVG Export Plug-In . SVG Version: 6.00 Build 0)  -->
<svg version="1.1" id="Capa_1" xmlns="http://www.w3.org/2000/svg" xmlns:xlink="http://www.w3.org/1999/xlink" x="0px" y="0px"
	 viewBox="0 0 512 512" style="enable-background:new 0 0 512 512;" xml:space="preserve">
<g>
	<rect x="42.667" y="102.4" style="fill:#126099;" width="17.067" height="281.6"/>
	<rect x="85.333" y="102.4" style="fill:#126099;" width="25.6" height="238.933"/>
	<rect x="136.533" y="102.4" style="fill:#126099;" width="17.067" height="238.933"/>
	<rect x="170.667" y="102.4" style="fill:#126099;" width="25.6" height="238.933"/>
	<rect x="213.333" y="102.4" style="fill:#126099;" width="17.067" height="238.933"/>
</g>
<path style="fill:#4398D1;" d="M17.067,68.267H51.2V51.2H8.533C3.823,51.2,0,55.023,0,59.733V102.4h17.067V68.267z"/>
<g>
	<rect x="247.467" y="102.4" style="fill:#126099;" width="17.067" height="281.6"/>
	<rect x="324.267" y="102.4" style="fill:#126099;" width="25.6" height="238.933"/>
	<rect x="375.467" y="102.4" style="fill:#126099;" width="17.067" height="238.933"/>
	<rect x="409.6" y="102.4" style="fill:#126099;" width="25.6" height="238.933"/>
	<rect x="452.267" y="102.4" style="fill:#126099;" width="17.067" height="281.6"/>
</g>
<g>
	<path style="fill:#4398D1;" d="M17.067,409.6H0v42.667c0,4.71,3.823,8.533,8.533,8.533H51.2v-17.067H17.067V409.6z"/>
	<path style="fill:#4398D1;" d="M494.933,443.733H460.8V460.8h42.667c4.71,0,8.533-3.823,8.533-8.533V409.6h-17.067V443.733z"/>
	<path style="fill:#4398D1;" d="M503.467,51.2H460.8v17.067h34.133V102.4H512V59.733C512,55.023,508.177,51.2,503.467,51.2z"/>
</g>
<g>
	<rect x="76.8" y="358.4" style="fill:#126099;" width="17.067" height="25.6"/>
	<rect x="110.933" y="358.4" style="fill:#126099;" width="17.067" height="25.6"/>
	<rect x="145.067" y="358.4" style="fill:#126099;" width="17.067" height="25.6"/>
	<rect x="179.2" y="358.4" style="fill:#126099;" width="17.067" height="25.6"/>
	<rect x="213.333" y="358.4" style="fill:#126099;" width="17.067" height="25.6"/>
	<rect x="281.6" y="358.4" style="fill:#126099;" width="17.067" height="25.6"/>
	<rect x="315.733" y="358.4" style="fill:#126099;" width="17.067" height="25.6"/>
	<rect x="349.867" y="358.4" style="fill:#126099;" width="17.067" height="25.6"/>
	<rect x="384" y="358.4" style="fill:#126099;" width="17.067" height="25.6"/>
	<rect x="418.133" y="358.4" style="fill:#126099;" width="17.067" height="25.6"/>
	<rect x="290.133" y="102.4" style="fill:#126099;" width="17.067" height="238.933"/>
</g>
<rect x="42.667" y="102.4" width="17.067" height="281.6"/>
<rect x="85.333" y="102.4" width="25.6" height="238.933"/>
<rect x="136.533" y="102.4" width="17.067" height="238.933"/>
<rect x="170.667" y="102.4" width="25.6" height="238.933"/>
<rect x="213.333" y="102.4" width="17.067" height="238.933"/>
<rect x="247.467" y="102.4" width="17.067" height="281.6"/>
<rect x="324.267" y="102.4" width="25.6" height="238.933"/>
<rect x="375.467" y="102.4" width="17.067" height="238.933"/>
<rect x="409.6" y="102.4" width="25.6" height="238.933"/>
<rect x="452.267" y="102.4" width="17.067" height="281.6"/>
<rect x="76.8" y="358.4" width="17.067" height="25.6"/>
<rect x="110.933" y="358.4" width="17.067" height="25.6"/>
<rect x="145.067" y="358.4" width="17.067" height="25.6"/>
<rect x="179.2" y="358.4" width="17.067" height="25.6"/>
<rect x="213.333" y="358.4" width="17.067" height="25.6"/>
<rect x="281.6" y="358.4" width="17.067" height="25.6"/>
<rect x="315.733" y="358.4" width="17.067" height="25.6"/>
<rect x="349.867" y="358.4" width="17.067" height="25.6"/>
<rect x="384" y="358.4" width="17.067" height="25.6"/>
<rect x="418.133" y="358.4" width="17.067" height="25.6"/>
<rect x="290.133" y="102.4" width="17.067" height="238.933"/>
<g>
</g>
<g>
</g>
<g>
</g>
<g>
</g>
<g>
</g>
<g>
</g>
<g>
</g>
<g>
</g>
<g>
</g>
<g>
</g>
<g>
</g>
<g>
</g>
<g>
</g>
<g>
</g>
<g>
</g>
</svg>
