<?xml version="1.0" encoding="iso-8859-1"?>
<!-- Generator: Adobe Illustrator 19.0.0, SVG Export Plug-In . SVG Version: 6.00 Build 0)  -->
<svg version="1.1" id="Capa_1" xmlns="http://www.w3.org/2000/svg" xmlns:xlink="http://www.w3.org/1999/xlink" x="0px" y="0px"
	 viewBox="0 0 398.687 398.687" style="enable-background:new 0 0 398.687 398.687;" xml:space="preserve">
<g>
	<g>
		<g>
			<path d="M262.037,32.914h-24.555c-3.882-0.565-7.006-3.48-7.837-7.314C226.691,10.867,213.846,0.199,198.821,0
				c-15.099-0.004-28.056,10.756-30.824,25.6c-0.831,3.834-3.955,6.749-7.837,7.314h-23.51V74.71h125.388V32.914z"/>
			<path d="M327.878,53.812c-0.004,0-0.008,0-0.012,0h-50.155v10.449h39.706c4.319,0.278,7.595,4.005,7.317,8.324
				c-0.001,0.012-0.002,0.023-0.002,0.035v294.139c0,4.702-3.135,5.747-7.314,5.747H81.27c-4.18,0-7.314-1.045-7.314-5.747V72.62
				c-0.297-4.318,2.962-8.059,7.28-8.357c0.012-0.001,0.023-0.002,0.035-0.002h39.706V53.812H70.821
				c-12.981,0.285-23.273,11.04-22.988,24.021c0,0.004,0,0.008,0,0.012v299.363c-0.032,11.83,9.533,21.446,21.363,21.478
				c0.542,0.001,1.084-0.018,1.625-0.057h257.045c11.798,0.866,22.065-7.997,22.93-19.796c0.04-0.541,0.059-1.083,0.057-1.625
				V77.845C351.145,64.864,340.859,54.104,327.878,53.812z"/>
			<path d="M120.976,79.935H89.629v276.898h219.429V79.935h-31.347v3.135c0.289,3.74-2.509,7.006-6.249,7.294
				c-0.181,0.014-0.362,0.021-0.543,0.02H127.246c-4.18,0-6.269-3.135-6.269-7.314V79.935z M272.486,315.037H126.201
				c-4.328,0-7.837-3.509-7.837-7.837s3.509-7.837,7.837-7.837h146.286c4.328,0,7.837,3.509,7.837,7.837
				S276.814,315.037,272.486,315.037z M272.486,262.792H126.201c-4.328,0-7.837-3.509-7.837-7.837c0-4.328,3.509-7.837,7.837-7.837
				h146.286c4.328,0,7.837,3.509,7.837,7.837C280.323,259.283,276.814,262.792,272.486,262.792z M272.486,194.873
				c4.328,0,7.837,3.509,7.837,7.837s-3.509,7.837-7.837,7.837H126.201c-4.328,0-7.837-3.509-7.837-7.837s3.509-7.837,7.837-7.837
				H272.486z M126.201,142.629h67.918c4.328,0,7.837,3.509,7.837,7.837c0,4.328-3.509,7.837-7.837,7.837h-67.918
				c-4.328,0-7.837-3.509-7.837-7.837C118.364,146.137,121.873,142.629,126.201,142.629z"/>
		</g>
	</g>
</g>
<g>
</g>
<g>
</g>
<g>
</g>
<g>
</g>
<g>
</g>
<g>
</g>
<g>
</g>
<g>
</g>
<g>
</g>
<g>
</g>
<g>
</g>
<g>
</g>
<g>
</g>
<g>
</g>
<g>
</g>
</svg>
