<?xml version="1.0" standalone="no"?>
<!DOCTYPE svg PUBLIC "-//W3C//DTD SVG 20010904//EN"
 "http://www.w3.org/TR/2001/REC-SVG-20010904/DTD/svg10.dtd">
<svg version="1.0" xmlns="http://www.w3.org/2000/svg"
 width="324.000000pt" height="301.000000pt" viewBox="0 0 324.000000 301.000000"
 preserveAspectRatio="xMidYMid meet">

<g transform="translate(0.000000,301.000000) scale(0.100000,-0.100000)"
fill="#000000" stroke="none">
<path d="M1470 2905 c-8 -2 -49 -9 -90 -15 -229 -37 -532 -191 -684 -349 l-39
-40 18 -28 c10 -15 70 -78 134 -140 136 -131 176 -150 288 -140 l65 6 114 110
c155 149 227 197 290 189 22 -2 30 -11 42 -46 12 -37 12 -54 -2 -137 -20 -117
-60 -227 -95 -263 -14 -15 -48 -42 -74 -59 -35 -24 -47 -39 -47 -58 0 -27 2
-28 113 -44 38 -6 80 -17 93 -25 13 -9 36 -16 52 -16 65 0 209 -33 267 -60
122 -58 198 -151 334 -410 39 -74 80 -144 91 -154 18 -19 21 -19 88 -3 131 32
201 21 288 -44 90 -66 120 -168 89 -294 -48 -191 -164 -333 -348 -425 -150
-73 -231 -92 -407 -94 -166 -1 -197 6 -376 84 -123 55 -208 80 -268 80 -27 0
-37 3 -30 10 6 6 96 22 200 35 231 30 300 44 444 91 187 60 356 157 407 233
17 25 23 48 23 88 0 46 -3 55 -24 64 -27 13 -70 -5 -124 -52 -18 -16 -49 -38
-70 -48 -20 -11 -62 -45 -92 -75 -50 -51 -58 -56 -100 -56 -25 -1 -55 -1 -68
-1 -30 -1 -62 28 -62 56 0 12 8 33 19 46 l19 24 -72 0 c-121 0 -184 45 -211
153 -8 31 -22 54 -43 70 l-30 23 -73 -93 c-39 -51 -96 -130 -126 -176 -59 -91
-119 -153 -173 -179 -23 -11 -70 -18 -135 -21 -98 -4 -101 -4 -124 22 l-25 26
29 30 c23 24 37 30 69 30 60 0 113 18 145 48 41 40 140 268 141 325 0 23 -25
-13 -64 -91 -37 -73 -54 -95 -105 -135 -89 -70 -199 -115 -215 -88 -3 5 -26
12 -51 15 -25 4 -45 12 -45 17 0 41 57 79 117 79 67 0 124 49 183 159 60 111
67 137 51 194 -10 35 -21 47 -63 72 -61 35 -168 136 -168 158 0 8 -17 27 -37
43 -76 57 -137 155 -159 254 -9 42 -24 82 -34 90 -9 8 -45 59 -78 113 -62 101
-63 104 -79 256 l-8 74 -58 -81 c-73 -101 -156 -260 -196 -374 -96 -275 -102
-616 -15 -875 156 -466 534 -822 997 -942 130 -34 240 -44 397 -38 208 9 355
45 535 133 304 148 525 368 675 669 103 208 140 367 140 599 0 236 -47 429
-154 631 -86 162 -153 251 -287 380 -189 182 -431 311 -694 370 -64 15 -395
30 -435 20z"/>
</g>
</svg>
