<?xml version="1.0" encoding="iso-8859-1"?>
<!-- Generator: Adobe Illustrator 19.0.0, SVG Export Plug-In . SVG Version: 6.00 Build 0)  -->
<svg version="1.1" id="Capa_1" xmlns="http://www.w3.org/2000/svg" xmlns:xlink="http://www.w3.org/1999/xlink" x="0px" y="0px"
	 viewBox="0 0 512 512" style="enable-background:new 0 0 512 512;" xml:space="preserve">
<g>
	<g>
		<path d="M427.598,282.852c-21.723,0-40.122-13.707-50.194-37.918c-10.158-24.422-10.534-56.318-1.029-87.51
			c6.373-20.914,19.675-49.581,47.37-75.672c-22.572,16.468-48.579,39.147-74.454,65.01c-17.808,17.81-29.817,33.456-36.762,48.06
			c-15.642-3.507-34.041-5.173-56.53-5.173c-22.49,0-40.889,1.665-56.53,5.173c-6.945-14.605-18.953-30.252-36.765-48.064
			c-25.882-25.871-51.89-48.55-74.461-65.014c27.692,26.087,40.997,54.748,47.373,75.659c9.512,31.196,9.142,63.097-1.016,87.523
			c-10.07,24.214-28.474,37.924-50.2,37.924c-0.499,0-1.002-0.014-1.505-0.029c15.375,10.254,29.941,15.646,43.998,16.243
			c3.715,29.742,17.468,56.99,39.651,78.001c12.601,11.933,24.148,25.149,34.742,37.645c11.565,13.658,32.017,21.812,54.713,21.812
			c22.695,0,43.148-8.154,54.706-21.803c10.6-12.505,22.147-25.72,34.75-37.654c22.181-21.009,35.934-48.257,39.649-78
			c14.055-0.597,28.624-5.989,43.998-16.243C428.598,282.837,428.096,282.852,427.598,282.852z M204.125,323.738
			c-9.803,0-17.061-8.012-17.486-17.486c-0.423-9.443,8.34-17.486,17.486-17.486c9.802,0,17.061,8.012,17.486,17.486
			C222.034,315.696,213.272,323.738,204.125,323.738z M287.823,361.329l-19.459,19.459c-3.414,3.414-7.889,5.122-12.364,5.122
			s-8.95-1.708-12.364-5.122l-19.459-19.459c-6.829-6.828-6.829-17.9,0-24.728c6.828-6.828,17.9-6.828,24.728,0l7.096,7.096
			l7.096-7.096c6.828-6.828,17.9-6.828,24.728,0C294.652,343.428,294.652,354.5,287.823,361.329z M307.873,320.825
			c-9.802,0-17.061-8.012-17.486-17.486c-0.423-9.443,8.34-17.486,17.486-17.486c9.803,0,17.061,8.012,17.486,17.486
			C325.781,312.782,317.02,320.825,307.873,320.825z"/>
	</g>
</g>
<g>
	<g>
		<path d="M50.371,95.575C25.459,78.832,11.958,75.477,6.27,75.477c-1.793,0-2.81,0.334-3.161,0.685
			c-3.606,3.608-6.718,23.244,6.691,60.916c12.724,35.745,34.665,71.431,58.694,95.46c5.807,5.807,11.453,10.922,16.844,15.259
			c7.013-0.584,12.709-6.048,16.972-16.299C114.783,201.505,106.879,137.607,50.371,95.575z"/>
	</g>
</g>
<g>
	<g>
		<path d="M508.891,76.162c-1.47-1.468-14.504-2.61-47.295,19.435c-56.485,42.031-64.377,105.92-51.903,135.906
			c4.263,10.247,9.961,15.709,16.97,16.294c5.391-4.337,11.038-9.452,16.844-15.259c0,0,0,0,0.001,0
			c24.028-24.029,45.97-59.715,58.694-95.46C515.609,99.405,512.499,79.77,508.891,76.162z"/>
	</g>
</g>
<g>
</g>
<g>
</g>
<g>
</g>
<g>
</g>
<g>
</g>
<g>
</g>
<g>
</g>
<g>
</g>
<g>
</g>
<g>
</g>
<g>
</g>
<g>
</g>
<g>
</g>
<g>
</g>
<g>
</g>
</svg>
