<?xml version="1.0" encoding="iso-8859-1"?>
<!-- Generator: Adobe Illustrator 19.0.0, SVG Export Plug-In . SVG Version: 6.00 Build 0)  -->
<svg version="1.1" id="Layer_1" xmlns="http://www.w3.org/2000/svg" xmlns:xlink="http://www.w3.org/1999/xlink" x="0px" y="0px"
	 viewBox="0 0 511.992 511.992" style="enable-background:new 0 0 511.992 511.992;" xml:space="preserve">
<g>
	<g>
		<path d="M484.746,111.59L348.69,1.024c-2.935-2.389-7.364-0.324-7.364,3.43v110.566c0,2.458,2.014,4.446,4.506,4.446h136.055
			C486.111,119.467,488.014,114.244,484.746,111.59z"/>
	</g>
</g>
<g>
	<g>
		<path d="M253.381,253.124l-75.298-82.833c-2.62-2.876-7.424-1.024-7.424,2.876v27.366c0,2.355-1.911,4.267-4.267,4.267H34.126
			c-4.71,0-8.533,3.823-8.533,8.533v76.8c0,4.71,3.823,8.533,8.533,8.533h132.267c2.355,0,4.267,1.911,4.267,4.267v35.9
			c0,3.9,4.804,5.751,7.424,2.867l75.298-82.833C254.858,257.237,254.858,254.754,253.381,253.124z"/>
	</g>
</g>
<g>
	<g>
		<path d="M482.126,136.533h-153.6c-2.355,0-4.267-1.911-4.267-4.267v-128c0-2.355-1.911-4.267-4.267-4.267H81.059
			c-2.355,0-4.267,1.911-4.267,4.267v179.2c0,2.355,1.911,4.267,4.267,4.267h68.267c2.355,0,4.267-1.911,4.267-4.267v-53.214
			c0-3.866,4.71-5.769,7.356-2.944c24.533,26.172,102.903,109.764,118.084,125.961c1.51,1.613,1.493,4.062,0.008,5.709
			c-15.172,16.828-93.696,99.959-118.161,125.841c-2.637,2.79-7.313,0.939-7.313-2.91c-0.009-17.143,0.017-50.176,0.026-61.918
			c0-2.355-1.911-4.267-4.267-4.267h-64c-4.71,0-8.533,3.823-8.533,8.533v179.2c0,4.71,3.823,8.533,8.533,8.533h392.533
			c4.71,0,8.533-3.823,8.533-8.533V140.8C486.393,138.445,484.481,136.533,482.126,136.533z"/>
	</g>
</g>
<g>
</g>
<g>
</g>
<g>
</g>
<g>
</g>
<g>
</g>
<g>
</g>
<g>
</g>
<g>
</g>
<g>
</g>
<g>
</g>
<g>
</g>
<g>
</g>
<g>
</g>
<g>
</g>
<g>
</g>
</svg>
