<svg id="Flat" height="512" viewBox="0 0 512 512" width="512" xmlns="http://www.w3.org/2000/svg"><path d="m264 424h128l56 64h40v-128l-40-48v-48a64 64 0 0 0 -64-64h-40a32 32 0 0 0 -32 32 32 32 0 0 0 32 32h-80z" fill="#efba92"/><path d="m400 488a80.091 80.091 0 0 1 -80-80v-40a8 8 0 0 1 16 0v40a64.072 64.072 0 0 0 64 64 8 8 0 0 1 0 16z" fill="#414649"/><path d="m380.112 337.147v-.007c-30.4-18.239-28.152-72.2-28.126-72.745l-7.986-.395-7.99-.4c-.132 2.605-2.777 64.073 35.874 87.263v-.007a7.992 7.992 0 1 0 8.224-13.706z" fill="#d9a985"/><path d="m297.869 376h22.131a32 32 0 0 0 32-32v-200h-128l17.143 88 25.437 118.7a32 32 0 0 0 31.289 25.3z" fill="#596063"/><g fill="#f7cca9"><rect height="48" rx="24" width="72" x="216" y="232"/><rect height="48" rx="24" width="96" x="216" y="280"/><rect height="48" rx="24" width="88" x="216" y="328"/><rect height="48" rx="24" width="64" x="232" y="376"/></g><path d="m67.716 135.2a7.974 7.974 0 0 1 -5.657-2.343 48 48 0 0 1 0-67.882 8 8 0 1 1 11.314 11.309 32 32 0 0 0 0 45.255 8 8 0 0 1 -5.657 13.661z" fill="#414649"/><path d="m45.088 157.823a7.974 7.974 0 0 1 -5.656-2.343 80.091 80.091 0 0 1 0-113.137 8 8 0 0 1 11.313 11.314 64.074 64.074 0 0 0 0 90.51 8 8 0 0 1 -5.657 13.656z" fill="#414649"/><path d="m448 264a64 64 0 0 0 -64-64h-40a32 32 0 0 0 -32 32 32 32 0 0 0 32 32z" fill="#efba92"/><path d="m344 152h-224l-24-128 251.969 28.5a32 32 0 0 1 28.031 31.749v35.751a32 32 0 0 1 -32 32z" fill="#6a7073"/><path d="m174.59 152h-54.59l-24-128 57.14 6.46z" fill="#4f5659"/></svg>